<?xml version="1.0" encoding="UTF-8"?>
<svg version="1.1" xmlns="http://www.w3.org/2000/svg" width="256" height="256">
<path d="M0 0 C0.97605698 -0.00846954 1.95211395 -0.01693909 2.95774841 -0.02566528 C6.18632008 -0.049076 9.41441625 -0.05005638 12.64306641 -0.04882812 C14.8874226 -0.05592769 17.13177697 -0.06362638 19.37612915 -0.07189941 C24.08202152 -0.08535394 28.78774611 -0.08690878 33.49365234 -0.08105469 C39.52202049 -0.07516056 45.54958274 -0.10573454 51.57779503 -0.14617157 C56.2138197 -0.17203203 60.84964999 -0.17492739 65.48573685 -0.17127991 C67.70808562 -0.17297298 69.9304432 -0.18263337 72.15272141 -0.20042419 C75.26251746 -0.22257832 78.37067792 -0.21292881 81.48046875 -0.1953125 C82.85532188 -0.21520737 82.85532188 -0.21520737 84.25794983 -0.23550415 C88.5990521 -0.17841307 91.47757041 0.05111649 94.92520142 2.83337402 C98.44686565 6.55978975 98.4979752 8.28615792 98.52352905 13.31463623 C98.53212952 14.57083771 98.54072998 15.82703918 98.54959106 17.12130737 C98.55402645 18.52130086 98.55832479 19.92129478 98.5625 21.32128906 C98.5704001 22.78966466 98.57866899 24.25803831 98.58728027 25.72640991 C98.61351278 30.55652 98.6288099 35.38663882 98.64306641 40.21679688 C98.64842573 41.87898006 98.65380324 43.54116319 98.65919876 45.20334625 C98.68082998 52.11756514 98.69956666 59.03178168 98.71082115 65.94602585 C98.72705971 75.85741326 98.76023216 85.76840858 98.817222 95.67964816 C98.85591935 102.64702828 98.87545363 109.61430353 98.88074172 116.5817883 C98.88439572 120.74379819 98.89642142 124.90539002 98.92884445 129.06728363 C98.95892156 132.98426451 98.96523862 136.90057431 98.95346069 140.81764603 C98.95323992 142.25355404 98.96154852 143.68949315 98.97911453 145.12529373 C99.12017203 157.32104025 99.12017203 157.32104025 96.0206604 161.25860596 C92.72268332 163.94735951 90.41070901 164.54333367 86.28408813 164.56036377 C85.45418869 164.56607391 84.62428925 164.57178406 83.76924133 164.57766724 C82.40861824 164.57934402 82.40861824 164.57934402 81.02050781 164.58105469 C80.06249771 164.58601959 79.10448761 164.5909845 78.1174469 164.59609985 C74.9436878 164.61072218 71.76997867 164.6175233 68.59619141 164.62304688 C66.39285277 164.62879788 64.18951414 164.63455562 61.98617554 164.64031982 C57.36431647 164.65082975 52.7424748 164.6566726 48.12060547 164.66015625 C42.19658336 164.66564362 36.27279079 164.68967702 30.34884071 164.7181282 C25.7969597 164.73674512 21.24513411 164.74195967 16.69321823 164.74349213 C14.50912596 164.74652087 12.32503472 164.75455683 10.14097977 164.76767731 C7.08632138 164.78471918 4.03222561 164.78286206 0.97753906 164.77636719 C0.07450546 164.78558197 -0.82852814 164.79479675 -1.75892639 164.80429077 C-6.53188533 164.77247737 -9.80295504 164.5884383 -13.63037109 161.41992188 C-16.71808585 158.10186274 -17.0066696 155.79361648 -17.01132202 151.31593323 C-17.01978149 150.06395142 -17.02824097 148.8119696 -17.03695679 147.52204895 C-17.03112402 146.13717521 -17.02497952 144.75230276 -17.01855469 143.36743164 C-17.02262041 141.9069886 -17.0279623 140.44654864 -17.03448486 138.9861145 C-17.04816549 135.0211894 -17.04285649 131.0564984 -17.03334761 127.09156919 C-17.02575341 122.94189398 -17.03279608 118.79223885 -17.0375061 114.64256287 C-17.04296497 107.6727234 -17.03576927 100.70297929 -17.02148438 93.7331543 C-17.00516398 85.6771885 -17.01044134 77.62145056 -17.02696359 69.56549031 C-17.04058239 62.64817149 -17.04249601 55.73092122 -17.03464758 48.81359333 C-17.0299724 44.68252544 -17.02934181 40.55156461 -17.03925705 36.42050362 C-17.04792996 32.53559469 -17.04189905 28.65097911 -17.02457428 24.76610184 C-17.02061087 23.34109039 -17.02174103 21.91605421 -17.02836227 20.49105263 C-17.0365729 18.54434217 -17.02444594 16.5975777 -17.01132202 14.65089417 C-17.01019094 13.56192117 -17.00905987 12.47294817 -17.00789452 11.35097599 C-16.48040838 7.25562637 -14.74717397 4.67805275 -12.04476929 1.63366699 C-8.16133774 -0.31857771 -4.28605941 -0.01364382 0 0 Z " fill="#F3ECE2" transform="translate(122.63037109375,45.580078125)"/>
<path d="M0 0 C0.97605698 -0.00846954 1.95211395 -0.01693909 2.95774841 -0.02566528 C6.18632008 -0.049076 9.41441625 -0.05005638 12.64306641 -0.04882812 C14.8874226 -0.05592769 17.13177697 -0.06362638 19.37612915 -0.07189941 C24.08202152 -0.08535394 28.78774611 -0.08690878 33.49365234 -0.08105469 C39.52202049 -0.07516056 45.54958274 -0.10573454 51.57779503 -0.14617157 C56.2138197 -0.17203203 60.84964999 -0.17492739 65.48573685 -0.17127991 C67.70808562 -0.17297298 69.9304432 -0.18263337 72.15272141 -0.20042419 C75.26251746 -0.22257832 78.37067792 -0.21292881 81.48046875 -0.1953125 C82.85532188 -0.21520737 82.85532188 -0.21520737 84.25794983 -0.23550415 C88.5990521 -0.17841307 91.47757041 0.05111649 94.92520142 2.83337402 C98.44686565 6.55978975 98.4979752 8.28615792 98.52352905 13.31463623 C98.53212952 14.57083771 98.54072998 15.82703918 98.54959106 17.12130737 C98.55402645 18.52130086 98.55832479 19.92129478 98.5625 21.32128906 C98.5704001 22.78966466 98.57866899 24.25803831 98.58728027 25.72640991 C98.61351278 30.55652 98.6288099 35.38663882 98.64306641 40.21679688 C98.64842573 41.87898006 98.65380324 43.54116319 98.65919876 45.20334625 C98.68082998 52.11756514 98.69956666 59.03178168 98.71082115 65.94602585 C98.72705971 75.85741326 98.76023216 85.76840858 98.817222 95.67964816 C98.85591935 102.64702828 98.87545363 109.61430353 98.88074172 116.5817883 C98.88439572 120.74379819 98.89642142 124.90539002 98.92884445 129.06728363 C98.95892156 132.98426451 98.96523862 136.90057431 98.95346069 140.81764603 C98.95323992 142.25355404 98.96154852 143.68949315 98.97911453 145.12529373 C99.12017203 157.32104025 99.12017203 157.32104025 96.0206604 161.25860596 C92.72268332 163.94735951 90.41070901 164.54333367 86.28408813 164.56036377 C85.45418869 164.56607391 84.62428925 164.57178406 83.76924133 164.57766724 C82.40861824 164.57934402 82.40861824 164.57934402 81.02050781 164.58105469 C80.06249771 164.58601959 79.10448761 164.5909845 78.1174469 164.59609985 C74.9436878 164.61072218 71.76997867 164.6175233 68.59619141 164.62304688 C66.39285277 164.62879788 64.18951414 164.63455562 61.98617554 164.64031982 C57.36431647 164.65082975 52.7424748 164.6566726 48.12060547 164.66015625 C42.19658336 164.66564362 36.27279079 164.68967702 30.34884071 164.7181282 C25.7969597 164.73674512 21.24513411 164.74195967 16.69321823 164.74349213 C14.50912596 164.74652087 12.32503472 164.75455683 10.14097977 164.76767731 C7.08632138 164.78471918 4.03222561 164.78286206 0.97753906 164.77636719 C0.07450546 164.78558197 -0.82852814 164.79479675 -1.75892639 164.80429077 C-6.53188533 164.77247737 -9.80295504 164.5884383 -13.63037109 161.41992188 C-16.71808585 158.10186274 -17.0066696 155.79361648 -17.01132202 151.31593323 C-17.01978149 150.06395142 -17.02824097 148.8119696 -17.03695679 147.52204895 C-17.03112402 146.13717521 -17.02497952 144.75230276 -17.01855469 143.36743164 C-17.02262041 141.9069886 -17.0279623 140.44654864 -17.03448486 138.9861145 C-17.04816549 135.0211894 -17.04285649 131.0564984 -17.03334761 127.09156919 C-17.02575341 122.94189398 -17.03279608 118.79223885 -17.0375061 114.64256287 C-17.04296497 107.6727234 -17.03576927 100.70297929 -17.02148438 93.7331543 C-17.00516398 85.6771885 -17.01044134 77.62145056 -17.02696359 69.56549031 C-17.04058239 62.64817149 -17.04249601 55.73092122 -17.03464758 48.81359333 C-17.0299724 44.68252544 -17.02934181 40.55156461 -17.03925705 36.42050362 C-17.04792996 32.53559469 -17.04189905 28.65097911 -17.02457428 24.76610184 C-17.02061087 23.34109039 -17.02174103 21.91605421 -17.02836227 20.49105263 C-17.0365729 18.54434217 -17.02444594 16.5975777 -17.01132202 14.65089417 C-17.01019094 13.56192117 -17.00905987 12.47294817 -17.00789452 11.35097599 C-16.48040838 7.25562637 -14.74717397 4.67805275 -12.04476929 1.63366699 C-8.16133774 -0.31857771 -4.28605941 -0.01364382 0 0 Z M-9.63037109 9.41992188 C-9.93555899 12.05721308 -9.93555899 12.05721308 -9.88433838 15.18969727 C-9.88997803 16.41802277 -9.89561768 17.64634827 -9.90142822 18.91189575 C-9.89753927 20.28045713 -9.89344291 21.64901793 -9.88916016 23.01757812 C-9.891869 24.45303526 -9.89542933 25.888491 -9.89978027 27.32394409 C-9.9089193 31.22882858 -9.90535383 35.13360771 -9.8990221 39.03849411 C-9.89396992 43.11884604 -9.89865137 47.19918875 -9.90179443 51.27954102 C-9.90543637 58.13266627 -9.90062904 64.98574847 -9.89111328 71.83886719 C-9.88022828 79.76984006 -9.8837537 87.70071011 -9.89476609 95.63168049 C-9.90383252 102.432554 -9.90512741 109.2333965 -9.89988875 116.0342741 C-9.89676549 120.0998624 -9.89636943 124.16540233 -9.90296173 128.23098755 C-9.90872522 132.05260167 -9.90475672 135.87408282 -9.89317322 139.69568253 C-9.89052127 141.10099186 -9.8913008 142.50631232 -9.89569855 143.91161728 C-9.90113414 145.82445637 -9.8931208 147.73731983 -9.88433838 149.65014648 C-9.88358433 150.72235947 -9.88283028 151.79457245 -9.88205338 152.89927673 C-9.88207303 155.59045593 -9.88207303 155.59045593 -7.63037109 157.41992188 C-4.56743118 157.61889295 -1.59486657 157.69254507 1.46923828 157.67871094 C2.41241409 157.68221558 3.3555899 157.68572021 4.3273468 157.68933105 C7.45609826 157.69815915 10.58462501 157.69229539 13.71337891 157.68554688 C15.88049361 157.68689321 18.04760802 157.68883348 20.21472168 157.69134521 C24.76101552 157.69429794 29.30723089 157.68999404 33.85351562 157.68066406 C39.69150794 157.66926948 45.52931638 157.67582816 51.36730194 157.68780899 C55.84358108 157.69502357 60.31981637 157.69274151 64.7960968 157.68755341 C66.94916302 157.68621579 69.10223317 157.6878685 71.2552948 157.69251251 C74.26031089 157.69757112 77.26502596 157.68987685 80.27001953 157.67871094 C81.16670853 157.6827594 82.06339752 157.68680786 82.98725891 157.690979 C87.6604949 157.88446957 87.6604949 157.88446957 91.36962891 155.41992188 C91.67198856 152.76277201 91.67198856 152.76277201 91.61686707 149.60545349 C91.62106155 148.36726868 91.62525604 147.12908386 91.62957764 145.8533783 C91.62409378 144.47378462 91.61841078 143.09419173 91.61254883 141.71459961 C91.61362128 140.2676688 91.6155594 138.82073842 91.61830139 137.37380981 C91.62315842 133.43799399 91.61548374 129.50229114 91.60534835 125.56648898 C91.59658322 121.45497685 91.59832498 117.34346842 91.59870911 113.23194885 C91.59777186 106.32754621 91.58907917 99.42318745 91.57543945 92.51879883 C91.55970707 84.52534583 91.55444153 76.53194091 91.55517501 68.53847355 C91.55578441 60.86153457 91.55068736 53.18461133 91.54238319 45.50767708 C91.53884394 42.23455749 91.53701903 38.96144347 91.53648949 35.68832207 C91.53548819 31.83801501 91.52940917 27.98774864 91.51932335 24.13745499 C91.51639168 22.72043799 91.51517432 21.30341632 91.51575089 19.88639641 C91.51623826 17.9600621 91.50999213 16.03372951 91.50334167 14.10740662 C91.50166583 13.0268975 91.49998999 11.94638838 91.49826336 10.83313656 C91.64188663 8.46935759 91.64188663 8.46935759 90.36962891 7.41992188 C87.33633832 7.31394784 84.32569195 7.27314667 81.29174805 7.2746582 C80.33896469 7.27129959 79.38618134 7.26794098 78.40452576 7.26448059 C75.23793249 7.2549395 72.07139192 7.25302591 68.90478516 7.25195312 C66.71382118 7.24874279 64.52285743 7.24537889 62.33189392 7.24186707 C57.7325694 7.23586791 53.1332637 7.23402797 48.53393555 7.23461914 C42.62754734 7.23472082 36.7212792 7.22106622 30.81491947 7.20384693 C26.28803448 7.19275275 21.76117874 7.19069913 17.23428154 7.19122887 C15.05609155 7.19004493 12.87790089 7.18560022 10.6997242 7.1778965 C7.6586976 7.16814837 4.61793474 7.17095406 1.5769043 7.17700195 C0.66929352 7.17138245 -0.23831726 7.16576294 -1.1734314 7.15997314 C-5.8856624 6.94987999 -5.8856624 6.94987999 -9.63037109 9.41992188 Z " fill="#48433D" transform="translate(122.63037109375,45.580078125)"/>
<path d="M0 0 C1.74610797 1.74610797 1.25498383 4.06117384 1.3125 6.4375 C1.2120482 15.8464857 -2.25502455 24.33744788 -9 31 C-18.42666667 38 -18.42666667 38 -22 38 C-23.23107719 45.72720775 -24.2700558 53.1683819 -24 61 C-23.38125 60.22076172 -23.38125 60.22076172 -22.75 59.42578125 C-16.57043932 51.96340999 -10.60090213 47.70338586 -1 46 C2.375 45.75 2.375 45.75 5 46 C7 48 7 48 7.15234375 50.03125 C6.36602645 59.06675059 3.44758323 66.01443558 -3.125 72.375 C-9.79269108 77.87389715 -16.4283255 80 -25 80 C-24.34 87.59 -23.68 95.18 -23 103 C-20.69 103.33 -18.38 103.66 -16 104 C-10.48418107 106.31664395 -4.940406 109.60925566 -2 115 C-2.3125 117.75 -2.3125 117.75 -3 120 C-3.99 120.33 -4.98 120.66 -6 121 C-8.26953125 119.41796875 -8.26953125 119.41796875 -10.8125 117.1875 C-15.19954243 113.34458686 -18.84806154 111.1328064 -24.78125 110.8828125 C-30.52240569 111.39423729 -34.55844494 112.00260045 -39 116 C-40.00568242 117.66324401 -41.00664799 119.32936253 -42 121 C-44.0625 121.875 -44.0625 121.875 -46 122 C-46.66 121.67 -47.32 121.34 -48 121 C-48.56224422 117.78717591 -48.44922765 115.70994012 -46.6875 112.92578125 C-42.90772317 108.36136324 -39.68125766 105.71509665 -34 104 C-32.68 104 -31.36 104 -30 104 C-30.309375 102.865625 -30.61875 101.73125 -30.9375 100.5625 C-33.09709837 92.64397264 -33.16506209 84.463704 -33.125 76.3125 C-33.12306641 75.35585449 -33.12113281 74.39920898 -33.11914062 73.41357422 C-33.07366732 65.90669011 -32.71439369 58.47561964 -32 51 C-33.11375 50.95875 -34.2275 50.9175 -35.375 50.875 C-43.66590025 49.80378634 -50.40325418 44.49442996 -55.53125 38.1328125 C-59.61836317 32.19780242 -62.4654306 25.33828909 -62 18 C-60 16 -60 16 -56.0625 15.625 C-47.99369219 15.85850248 -41.21117837 18.38295769 -35.4375 24.0625 C-33.36432298 26.30808259 -31.70230546 28.44654181 -30 31 C-29.90203125 30.29875 -29.8040625 29.5975 -29.703125 28.875 C-28.00968178 18.13039477 -24.64482167 10.90363851 -16 4 C-10.74096123 0.78313093 -6.14205739 -0.63979764 0 0 Z " fill="#479E40" transform="translate(95,87)"/>
<path d="M0 0 C1.11198257 0.00067978 1.11198257 0.00067978 2.24642944 0.00137329 C3.41225807 -0.00366463 3.41225807 -0.00366463 4.60163879 -0.00880432 C7.18385392 -0.01834265 9.76600441 -0.02025887 12.34823608 -0.02133179 C14.13563565 -0.02454236 15.92303496 -0.02790628 17.71043396 -0.03141785 C21.46234751 -0.03741633 25.214238 -0.03925701 28.96615601 -0.03866577 C33.78294056 -0.03856411 38.59957785 -0.05221756 43.41632748 -0.06943798 C47.10939722 -0.08053552 50.80243111 -0.08258567 54.49551582 -0.08205605 C56.27179027 -0.08323951 58.04806554 -0.08768168 59.82432365 -0.09538841 C62.3049754 -0.10514321 64.78530418 -0.1023283 67.26596069 -0.09628296 C68.00525818 -0.10190247 68.74455566 -0.10752197 69.5062561 -0.11331177 C74.5925767 -0.08167867 74.5925767 -0.08167867 76.82089233 2.14663696 C76.28517805 5.68235125 76.28517805 5.68235125 74.82089233 7.14663696 C72.33674285 7.25228979 69.880254 7.29341971 67.39535522 7.29190063 C66.61813614 7.29525925 65.84091705 7.29861786 65.04014587 7.30207825 C62.45793075 7.31161657 59.87578026 7.31353279 57.29354858 7.31460571 C55.50614901 7.31781629 53.71874971 7.3211802 51.93135071 7.32469177 C48.17943716 7.33069026 44.42754667 7.33253094 40.67562866 7.3319397 C35.8588441 7.33183803 31.04220682 7.34549149 26.22545719 7.36271191 C22.53238745 7.37380945 18.83935356 7.3758596 15.14626884 7.37532997 C13.3699944 7.37651344 11.59371913 7.38095561 9.81746101 7.38866234 C7.33680927 7.39841713 4.85648049 7.39560222 2.37582397 7.38955688 C1.63652649 7.39517639 0.897229 7.4007959 0.13552856 7.40658569 C-4.95079203 7.3749526 -4.95079203 7.3749526 -7.17910767 5.14663696 C-6.39843096 -0.00582931 -4.99753548 0.03173597 0 0 Z " fill="#4A453F" transform="translate(128.17910766601563,186.85336303710938)"/>
<path d="M0 0 C0.88365234 0.01804687 1.76730469 0.03609375 2.67773438 0.0546875 C4.84812543 0.10161487 7.01795519 0.17335269 9.1875 0.25 C9.8125 2.625 9.8125 2.625 10.1875 5.25 C8.1875 7.25 8.1875 7.25 4.2734375 7.4453125 C2.70299182 7.43386556 1.13264302 7.40788715 -0.4375 7.375 C-4.583125 7.313125 -4.583125 7.313125 -8.8125 7.25 C-8.4825 13.52 -8.1525 19.79 -7.8125 26.25 C-1.8725 26.25 4.0675 26.25 10.1875 26.25 C10.8475 24.27 11.5075 22.29 12.1875 20.25 C13.6875 18.375 13.6875 18.375 15.1875 17.25 C15.8475 17.25 16.5075 17.25 17.1875 17.25 C17.29591951 19.16541138 17.37328079 21.08259773 17.4375 23 C17.48390625 24.06734375 17.5303125 25.1346875 17.578125 26.234375 C17.08855067 30.01388886 16.1332076 30.9070772 13.1875 33.25 C10.59375 33.76757812 10.59375 33.76757812 7.6875 33.78125 C6.635625 33.78640625 5.58375 33.7915625 4.5 33.796875 C3.406875 33.78140625 2.31375 33.7659375 1.1875 33.75 C0.094375 33.76546875 -0.99875 33.7809375 -2.125 33.796875 C-3.176875 33.79171875 -4.22875 33.7865625 -5.3125 33.78125 C-6.2715625 33.77673828 -7.230625 33.77222656 -8.21875 33.76757812 C-11.620299 33.08880517 -12.78200589 32.0397682 -14.8125 29.25 C-15.63239614 25.12237642 -15.41533893 20.94999412 -15.375 16.75 C-15.39884766 15.60917969 -15.42269531 14.46835938 -15.44726562 13.29296875 C-15.43289982 5.14277048 -15.43289982 5.14277048 -12.890625 1.484375 C-8.52146734 -0.26772376 -4.65731096 -0.1805967 0 0 Z " fill="#3E3A33" transform="translate(135.8125,103.75)"/>
<path d="M0 0 C1.33417969 0.01933594 1.33417969 0.01933594 2.6953125 0.0390625 C4.07589844 0.08933594 4.07589844 0.08933594 5.484375 0.140625 C6.42023438 0.15867188 7.35609375 0.17671875 8.3203125 0.1953125 C10.62604515 0.24236827 12.92968445 0.30808787 15.234375 0.390625 C15.859375 2.265625 15.859375 2.265625 16.234375 4.390625 C14.234375 6.390625 14.234375 6.390625 10.3203125 6.5859375 C8.74986682 6.57449056 7.17951802 6.54851215 5.609375 6.515625 C1.46375 6.45375 1.46375 6.45375 -2.765625 6.390625 C-2.765625 12.990625 -2.765625 19.590625 -2.765625 26.390625 C3.834375 26.390625 10.434375 26.390625 17.234375 26.390625 C17.234375 24.740625 17.234375 23.090625 17.234375 21.390625 C19.109375 19.078125 19.109375 19.078125 21.234375 17.390625 C21.894375 17.390625 22.554375 17.390625 23.234375 17.390625 C23.36984965 19.30533344 23.46658369 21.22280981 23.546875 23.140625 C23.60488281 24.20796875 23.66289062 25.2753125 23.72265625 26.375 C23.234375 29.390625 23.234375 29.390625 21.40234375 31.74609375 C16.71331608 34.18022525 12.44223282 34.01106583 7.234375 33.953125 C6.24953125 33.97697266 5.2646875 34.00082031 4.25 34.02539062 C-0.17079911 34.01642955 -3.02720097 33.80787575 -6.91796875 31.609375 C-9.77376791 26.63436758 -9.45196618 21.96122495 -9.328125 16.328125 C-9.33908203 15.23951172 -9.35003906 14.15089844 -9.36132812 13.02929688 C-9.28801711 5.08727015 -9.28801711 5.08727015 -7.02807617 2.07348633 C-4.39942796 0.11823952 -3.23287992 -0.08289436 0 0 Z " fill="#3E3A34" transform="translate(129.765625,144.609375)"/>
<path d="M0 0 C0.93457031 0.01289062 1.86914062 0.02578125 2.83203125 0.0390625 C3.80011719 0.07257812 4.76820313 0.10609375 5.765625 0.140625 C7.24095703 0.16769531 7.24095703 0.16769531 8.74609375 0.1953125 C11.17026283 0.24238374 13.59244559 0.30811758 16.015625 0.390625 C15.140625 5.265625 15.140625 5.265625 14.015625 6.390625 C11.15093175 6.46392831 8.31668826 6.48280331 5.453125 6.453125 C2.66875 6.4325 -0.115625 6.411875 -2.984375 6.390625 C-2.984375 12.990625 -2.984375 19.590625 -2.984375 26.390625 C3.285625 26.060625 9.555625 25.730625 16.015625 25.390625 C16.675625 23.410625 17.335625 21.430625 18.015625 19.390625 C19.515625 17.515625 19.515625 17.515625 21.015625 16.390625 C21.675625 16.390625 22.335625 16.390625 23.015625 16.390625 C23.12404451 18.30603638 23.20140579 20.22322273 23.265625 22.140625 C23.31203125 23.20796875 23.3584375 24.2753125 23.40625 25.375 C22.91667567 29.15451386 21.9613326 30.0477022 19.015625 32.390625 C16.421875 32.90820312 16.421875 32.90820312 13.515625 32.921875 C12.46375 32.92703125 11.411875 32.9321875 10.328125 32.9375 C9.235 32.92203125 8.141875 32.9065625 7.015625 32.890625 C5.9225 32.90609375 4.829375 32.9215625 3.703125 32.9375 C2.65125 32.93234375 1.599375 32.9271875 0.515625 32.921875 C-0.4434375 32.91736328 -1.4025 32.91285156 -2.390625 32.90820312 C-5.7855467 32.23075263 -6.95269931 31.16920574 -8.984375 28.390625 C-9.50195312 25.796875 -9.50195312 25.796875 -9.515625 22.890625 C-9.52078125 21.83875 -9.5259375 20.786875 -9.53125 19.703125 C-9.51578125 18.61 -9.5003125 17.516875 -9.484375 16.390625 C-9.49984375 15.2975 -9.5153125 14.204375 -9.53125 13.078125 C-9.52351563 11.5003125 -9.52351563 11.5003125 -9.515625 9.890625 C-9.51111328 8.9315625 -9.50660156 7.9725 -9.50195312 6.984375 C-8.42896592 1.60729194 -5.20930276 -0.12705616 0 0 Z " fill="#3B3730" transform="translate(129.984375,63.609375)"/>
<path d="M0 0 C1.35581932 -0.0049926 1.35581932 -0.0049926 2.73902893 -0.01008606 C4.65487152 -0.01515921 6.57072297 -0.01749427 8.48657227 -0.01733398 C11.42544043 -0.01951938 14.36393277 -0.0376679 17.30273438 -0.05664062 C19.16015496 -0.05957462 21.01757734 -0.06155938 22.875 -0.0625 C23.75836533 -0.06968552 24.64173065 -0.07687103 25.55186462 -0.08427429 C31.77508486 -0.06085264 31.77508486 -0.06085264 34.00390625 2.16796875 C33.67390625 3.48796875 33.34390625 4.80796875 33.00390625 6.16796875 C19.14390625 6.16796875 5.28390625 6.16796875 -8.99609375 6.16796875 C-9.32609375 4.51796875 -9.65609375 2.86796875 -9.99609375 1.16796875 C-7.8542773 -0.9738477 -2.97031449 0.00373331 0 0 Z " fill="#38332C" transform="translate(170.99609375,153.83203125)"/>
<path d="M0 0 C1.77206192 0.00015919 3.54412846 0.00585754 5.31616211 0.01586914 C6.24698105 0.01728409 7.17779999 0.01869904 8.13682556 0.02015686 C11.12241777 0.02577367 14.10793615 0.03832899 17.09350586 0.05102539 C19.11238499 0.05603823 21.13126529 0.06060151 23.15014648 0.06469727 C28.11046158 0.07574856 33.07072118 0.09302444 38.03100586 0.11352539 C38.65600586 1.98852539 38.65600586 1.98852539 39.03100586 4.11352539 C37.03100586 6.11352539 37.03100586 6.11352539 33.0402832 6.34057617 C31.31580417 6.34025876 29.59130553 6.32891663 27.86694336 6.30883789 C26.50613144 6.30459305 26.50613144 6.30459305 25.11782837 6.30026245 C22.21375463 6.28904692 19.30998674 6.26394002 16.40600586 6.23852539 C14.43986447 6.22849736 12.47371826 6.2193712 10.50756836 6.21118164 C5.68192927 6.18910311 0.85651946 6.15456404 -3.96899414 6.11352539 C-4.35118181 4.45737882 -4.68294516 2.78895515 -4.96899414 1.11352539 C-3.96899414 0.11352539 -3.96899414 0.11352539 0 0 Z " fill="#3C3932" transform="translate(165.968994140625,113.886474609375)"/>
<path d="M0 0 C1.77206192 0.00015919 3.54412846 0.00585754 5.31616211 0.01586914 C6.24698105 0.01728409 7.17779999 0.01869904 8.13682556 0.02015686 C11.12241777 0.02577367 14.10793615 0.03832899 17.09350586 0.05102539 C19.11238499 0.05603823 21.13126529 0.06060151 23.15014648 0.06469727 C28.11046158 0.07574856 33.07072118 0.09302444 38.03100586 0.11352539 C38.65600586 1.98852539 38.65600586 1.98852539 39.03100586 4.11352539 C37.03100586 6.11352539 37.03100586 6.11352539 33.0402832 6.34057617 C31.31580417 6.34025876 29.59130553 6.32891663 27.86694336 6.30883789 C26.50613144 6.30459305 26.50613144 6.30459305 25.11782837 6.30026245 C22.21375463 6.28904692 19.30998674 6.26394002 16.40600586 6.23852539 C14.43986447 6.22849736 12.47371826 6.2193712 10.50756836 6.21118164 C5.68192927 6.18910311 0.85651946 6.15456404 -3.96899414 6.11352539 C-4.35118181 4.45737882 -4.68294516 2.78895515 -4.96899414 1.11352539 C-3.96899414 0.11352539 -3.96899414 0.11352539 0 0 Z " fill="#3A352F" transform="translate(165.968994140625,72.886474609375)"/>
<path d="M0 0 C7.01149568 0.56091965 10.75898485 2.75898485 15.6875 7.6875 C18.59647301 11.33779194 19.78422282 15.5520347 21 20 C18.74494682 20.76170685 17.39325478 21.10826447 15.0703125 20.46875 C7.78102035 16.83874106 3.04742899 11.61857247 0 4 C0 2.68 0 1.36 0 0 Z " fill="#74BE43" transform="translate(41,110)"/>
<path d="M0 0 C-2.00544316 7.75789856 -5.05379257 12.96445582 -11.4375 17.875 C-14.60460504 19.26543636 -17.57177236 19.66389925 -21 20 C-21 13.68041482 -18.55645043 10.54177281 -14.26171875 6.0234375 C-9.82005166 2.04971806 -5.97814419 0 0 0 Z " fill="#74BE43" transform="translate(95,140)"/>
<path d="M0 0 C0.70511719 0.28746094 1.41023438 0.57492188 2.13671875 0.87109375 C1.34151929 6.91565337 -1.97888685 9.61594135 -6.17578125 13.74609375 C-6.85318359 14.44734375 -7.53058594 15.14859375 -8.22851562 15.87109375 C-8.88787109 16.52851562 -9.54722656 17.1859375 -10.2265625 17.86328125 C-10.82766846 18.4651123 -11.42877441 19.06694336 -12.0480957 19.68701172 C-13.86328125 20.87109375 -13.86328125 20.87109375 -15.98193359 20.63623047 C-19.37184291 19.25756764 -21.79615543 16.86091587 -23.86328125 13.87109375 C-23.73828125 10.99609375 -23.73828125 10.99609375 -22.86328125 8.87109375 C-19.71346939 9.57105194 -16.84751511 10.65364511 -13.86328125 11.87109375 C-13.12722656 10.99324219 -12.39117187 10.11539063 -11.6328125 9.2109375 C-10.6480068 8.07606617 -9.66228138 6.94199249 -8.67578125 5.80859375 C-7.95165039 4.93750977 -7.95165039 4.93750977 -7.21289062 4.04882812 C-3.5041259 -0.15775737 -3.5041259 -0.15775737 0 0 Z " fill="#439C3C" transform="translate(153.86328125,107.12890625)"/>
<path d="M0 0 C1.2065625 0.0309375 1.2065625 0.0309375 2.4375 0.0625 C2.71727869 3.05873456 2.76006592 4.59142823 1.03222656 7.11474609 C0.38737305 7.76523926 -0.25748047 8.41573242 -0.921875 9.0859375 C-1.62570313 9.79621094 -2.32953125 10.50648437 -3.0546875 11.23828125 C-3.79976562 11.96402344 -4.54484375 12.68976563 -5.3125 13.4375 C-6.04210937 14.18644531 -6.77171875 14.93539062 -7.5234375 15.70703125 C-8.23242188 16.40957031 -8.94140625 17.11210938 -9.671875 17.8359375 C-10.32124023 18.47966309 -10.97060547 19.12338867 -11.63964844 19.78662109 C-13.5625 21.0625 -13.5625 21.0625 -15.69702148 20.84130859 C-19.0696527 19.43328692 -21.49672503 17.0503683 -23.5625 14.0625 C-23.4375 11.1875 -23.4375 11.1875 -22.5625 9.0625 C-19.69525314 9.63594937 -18.7010485 9.9239515 -16.5625 12.0625 C-13.48084022 11.95736875 -12.46926464 10.97224191 -10.23828125 8.8125 C-9.45839844 7.905 -8.67851562 6.9975 -7.875 6.0625 C-7.08738281 5.155 -6.29976562 4.2475 -5.48828125 3.3125 C-4.85277344 2.57 -4.21726563 1.8275 -3.5625 1.0625 C-2.5625 0.0625 -2.5625 0.0625 0 0 Z " fill="#439C3C" transform="translate(153.5625,65.9375)"/>
<path d="M0 0 C0.2910618 5.62719476 0.144094 9.12123345 -3 14 C-6.73504822 18.12821119 -10.65105346 22.21701782 -16 24 C-16.62958951 17.95594071 -16.09115127 13.8803793 -12.56640625 8.859375 C-5.10294118 0 -5.10294118 0 0 0 Z " fill="#74BF43" transform="translate(89,94)"/>
<path d="M0 0 C0.59329102 0.22163818 1.18658203 0.44327637 1.79785156 0.67163086 C1.4196327 5.63350216 -1.09233642 8.0129136 -4.57714844 11.23413086 C-8.47440096 14.88996722 -8.47440096 14.88996722 -11.90527344 18.97631836 C-13.20214844 20.67163086 -13.20214844 20.67163086 -15.57714844 21.23413086 C-19.36135889 20.42322862 -20.81661966 18.65354183 -23.20214844 15.67163086 C-24.01464844 12.85913086 -24.01464844 12.85913086 -24.20214844 10.67163086 C-21.95214844 9.98413086 -21.95214844 9.98413086 -19.20214844 9.67163086 C-17.03027344 11.15209961 -17.03027344 11.15209961 -15.20214844 12.67163086 C-13.86410156 11.24657227 -13.86410156 11.24657227 -12.49902344 9.79272461 C-11.3174028 8.56421426 -10.13507415 7.33638462 -8.95214844 6.10913086 C-8.365625 5.48071289 -7.77910156 4.85229492 -7.17480469 4.20483398 C-6.60117188 3.61508789 -6.02753906 3.0253418 -5.43652344 2.41772461 C-4.9128418 1.86785889 -4.38916016 1.31799316 -3.84960938 0.75146484 C-2.20214844 -0.32836914 -2.20214844 -0.32836914 0 0 Z " fill="#3F9A38" transform="translate(154.2021484375,147.328369140625)"/>
<path d="M0 0 C1.084021 0.00523682 2.16804199 0.01047363 3.28491211 0.01586914 C5.03964844 0.02070313 5.03964844 0.02070313 6.82983398 0.02563477 C8.67738281 0.03820312 8.67738281 0.03820312 10.56225586 0.05102539 C12.41560547 0.05779297 12.41560547 0.05779297 14.30639648 0.06469727 C17.37089703 0.07652931 20.43530307 0.09301366 23.49975586 0.11352539 C23.88194353 1.76967196 24.21370688 3.43809563 24.49975586 5.11352539 C23.49975586 6.11352539 23.49975586 6.11352539 20.99951172 6.22705078 C19.91549072 6.22181396 18.83146973 6.21657715 17.71459961 6.21118164 C16.54477539 6.20795898 15.37495117 6.20473633 14.16967773 6.20141602 C12.93797852 6.19303711 11.7062793 6.1846582 10.43725586 6.17602539 C8.58390625 6.16925781 8.58390625 6.16925781 6.69311523 6.16235352 C3.62861469 6.15052147 0.56420864 6.13403712 -2.50024414 6.11352539 C-2.88243181 4.45737882 -3.21419516 2.78895515 -3.50024414 1.11352539 C-2.50024414 0.11352539 -2.50024414 0.11352539 0 0 Z " fill="#3D3933" transform="translate(164.500244140625,165.886474609375)"/>
<path d="M0 0 C1.084021 0.00523682 2.16804199 0.01047363 3.28491211 0.01586914 C5.03964844 0.02070312 5.03964844 0.02070312 6.82983398 0.02563477 C8.67738281 0.03820312 8.67738281 0.03820312 10.56225586 0.05102539 C12.41560547 0.05779297 12.41560547 0.05779297 14.30639648 0.06469727 C17.37089703 0.07652931 20.43530307 0.09301366 23.49975586 0.11352539 C23.88194353 1.76967196 24.21370688 3.43809563 24.49975586 5.11352539 C23.49975586 6.11352539 23.49975586 6.11352539 20.99951172 6.22705078 C19.91549072 6.22181396 18.83146973 6.21657715 17.71459961 6.21118164 C16.54477539 6.20795898 15.37495117 6.20473633 14.16967773 6.20141602 C12.93797852 6.19303711 11.7062793 6.1846582 10.43725586 6.17602539 C8.58390625 6.16925781 8.58390625 6.16925781 6.69311523 6.16235352 C3.62861469 6.15052147 0.56420864 6.13403712 -2.50024414 6.11352539 C-2.88243181 4.45737882 -3.21419516 2.78895515 -3.50024414 1.11352539 C-2.50024414 0.11352539 -2.50024414 0.11352539 0 0 Z " fill="#3E3933" transform="translate(164.500244140625,84.886474609375)"/>
<path d="M0 0 C1.17111328 -0.01224609 2.34222656 -0.02449219 3.54882812 -0.03710938 C4.66580078 -0.03904297 5.78277344 -0.04097656 6.93359375 -0.04296875 C7.96411865 -0.04707764 8.99464355 -0.05118652 10.05639648 -0.05541992 C12.5625 0.1875 12.5625 0.1875 14.5625 2.1875 C14.2325 3.5075 13.9025 4.8275 13.5625 6.1875 C4.9825 6.1875 -3.5975 6.1875 -12.4375 6.1875 C-12.7675 4.5375 -13.0975 2.8875 -13.4375 1.1875 C-10.84794843 -1.40205157 -3.48572397 0.00191208 0 0 Z " fill="#3D3932" transform="translate(174.4375,124.8125)"/>
<path d="M0 0 C0.33 0.66 0.66 1.32 1 2 C1.66 2 2.32 2 3 2 C1.52278578 5.45201639 -0.43794001 7.64961936 -3.125 10.25 C-3.84945312 10.95640625 -4.57390625 11.6628125 -5.3203125 12.390625 C-5.87460938 12.92171875 -6.42890625 13.4528125 -7 14 C-7.87398437 13.24783203 -7.87398437 13.24783203 -8.765625 12.48046875 C-11.07763606 10.61649022 -11.07763606 10.61649022 -14.75 11.3125 C-15.8225 11.539375 -16.895 11.76625 -18 12 C-17.979375 11.05125 -17.95875 10.1025 -17.9375 9.125 C-17.77448174 6.09333717 -17.77448174 6.09333717 -19 4 C-17.79601562 3.96261719 -16.59203125 3.92523438 -15.3515625 3.88671875 C-13.77600989 3.82107072 -12.20049046 3.75462299 -10.625 3.6875 C-9.8309375 3.66494141 -9.036875 3.64238281 -8.21875 3.61914062 C-6.13784419 3.52214925 -4.06558668 3.27005175 -2 3 C-1.34 2.01 -0.68 1.02 0 0 Z " fill="#E8E3D9" transform="translate(146,147)"/>
<path d="M0 0 C0.33 0.99 0.66 1.98 1 3 C0.01 4.485 0.01 4.485 -1 6 C-0.34 6.33 0.32 6.66 1 7 C0.195625 7.556875 -0.60875 8.11375 -1.4375 8.6875 C-4.24228216 11.21864487 -4.69381595 12.32579134 -5 16 C-7.31 15.67 -9.62 15.34 -12 15 C-11.34 14.67 -10.68 14.34 -10 14 C-9.83177734 12.88044922 -9.83177734 12.88044922 -9.66015625 11.73828125 C-8.79134999 8.13453456 -7.11117298 6.71054352 -4.4375 4.1875 C-3.61121094 3.39730469 -2.78492188 2.60710937 -1.93359375 1.79296875 C-1.29550781 1.20128906 -0.65742188 0.60960937 0 0 Z " fill="#E5E3D6" transform="translate(152,155)"/>
<path d="M0 0 C13.53 0 27.06 0 41 0 C41 0.33 41 0.66 41 1 C39.83428467 1.02505615 38.66856934 1.0501123 37.4675293 1.07592773 C33.14563869 1.17004691 28.8239071 1.27025669 24.50219727 1.37231445 C22.63114134 1.41564622 20.76004631 1.45732257 18.88891602 1.49731445 C16.20056369 1.55505949 13.51240785 1.61874181 10.82421875 1.68359375 C9.56782845 1.70866249 9.56782845 1.70866249 8.28605652 1.73423767 C4.96326712 1.81914061 2.17247982 1.94250673 -1 3 C-0.67 2.01 -0.34 1.02 0 0 Z " fill="#403B36" transform="translate(162,154)"/>
<path d="M0 0 C2.33294775 -0.04241723 4.66702567 -0.04092937 7 0 C8 1 8 1 8.09765625 3.72265625 C8.08605469 4.82480469 8.07445313 5.92695312 8.0625 7.0625 C8.05347656 8.16722656 8.04445313 9.27195312 8.03515625 10.41015625 C8.02355469 11.26480469 8.01195313 12.11945313 8 13 C7.67 13 7.34 13 7 13 C6.67 9.37 6.34 5.74 6 2 C4.02 2 2.04 2 0 2 C0 1.34 0 0.68 0 0 Z " fill="#68AD60" transform="translate(88,87)"/>
</svg>
