<?xml version="1.0" encoding="UTF-8"?>
<svg version="1.1" xmlns="http://www.w3.org/2000/svg" width="1024" height="1024">
<path d="M0 0 C1.52869657 -0.00346321 3.05739063 -0.0082322 4.58607954 -0.01418173 C8.75638192 -0.02663026 12.92647663 -0.0205496 17.09677947 -0.01122308 C21.60603739 -0.00440762 26.11526076 -0.01492611 30.62451172 -0.02316284 C39.44584376 -0.03647549 48.26709905 -0.03363355 57.08843405 -0.02492492 C64.25958943 -0.01813948 71.43072336 -0.01723537 78.60188103 -0.02049637 C79.62396286 -0.02095607 80.64604468 -0.02141577 81.69909869 -0.0218894 C83.77566724 -0.02284861 85.85223579 -0.02382125 87.92880433 -0.02480717 C107.38262655 -0.03335372 126.83640631 -0.02353824 146.29022156 -0.00740607 C162.97104441 0.00599845 179.65180462 0.00366648 196.33262634 -0.01016235 C215.72016554 -0.02622768 235.10766757 -0.03253193 254.4952125 -0.02332556 C256.56367679 -0.02236995 258.63214109 -0.02142684 260.70060539 -0.02049637 C262.22705506 -0.01980213 262.22705506 -0.01980213 263.7843421 -0.01909386 C270.9447693 -0.01650699 278.10517285 -0.02086841 285.26559639 -0.02793503 C293.99469474 -0.03636071 302.72371218 -0.03404733 311.45280129 -0.0180928 C315.90380337 -0.01022479 320.3546707 -0.00709339 324.80567169 -0.01704025 C328.88481147 -0.02601806 332.96369233 -0.02100382 337.04280882 -0.0051076 C338.51369679 -0.00177284 339.98460689 -0.00342429 341.45548046 -0.01073496 C359.98158737 -0.09570936 374.01796345 5.18603227 387.38121033 17.99032593 C389.58433533 20.38095093 389.58433533 20.38095093 389.58433533 22.38095093 C390.24433533 22.38095093 390.90433533 22.38095093 391.58433533 22.38095093 C399.75374253 33.54849033 403.7454477 46.77029837 403.7185564 60.49468708 C403.72090863 61.31114725 403.72326086 62.12760742 403.72568437 62.9688088 C403.73236375 65.71625431 403.73191647 68.46365241 403.73150635 71.21110535 C403.73480565 73.19629685 403.73853136 75.18148768 403.74264783 77.16667765 C403.75266869 82.63145224 403.75638477 88.09621585 403.75903714 93.56099832 C403.76294001 99.45152845 403.77251846 105.34204988 403.78125 111.23257446 C403.80008194 124.79149235 403.81027136 138.35041176 403.81871068 151.9093393 C403.82291906 158.61286854 403.82814086 165.31639688 403.83339521 172.01992536 C403.85128667 194.97619915 403.86628087 217.93247321 403.8737154 240.88875294 C403.87419015 242.32981924 403.87466604 243.77088553 403.87514306 245.21195183 C403.87537944 245.92657881 403.87561581 246.64120578 403.87585935 247.37748811 C403.87706053 250.99802715 403.87827599 254.61856619 403.87950134 258.23910522 C403.87974149 258.95760767 403.87998164 259.67611011 403.88022907 260.41638536 C403.88811716 283.69753202 403.9115382 306.97862766 403.94405729 330.25975206 C403.97839111 354.88515966 403.99806993 379.51053742 404.00135964 404.13596934 C404.00177716 406.84187902 404.00225672 409.54778869 404.00278282 412.25369835 C404.00290601 412.91994876 404.0030292 413.58619917 404.00315613 414.27263899 C404.00534001 424.31260611 404.01869346 434.35251744 404.03782082 444.39246559 C404.05954615 455.82250336 404.06756921 467.25244796 404.05785403 478.68250404 C404.05331452 484.51128577 404.05517553 490.33987532 404.07461548 496.1686306 C404.09228469 501.5127823 404.09121878 506.85660217 404.07571819 512.20075759 C404.07334782 514.12618694 404.07763575 516.0516395 404.08954684 517.97703347 C404.21030477 538.79999354 400.58734998 556.26537391 385.51792908 571.64657593 C371.84246552 584.8630093 355.85687032 587.69159366 337.58795166 587.64837646 C336.08033226 587.6521183 334.5727148 587.65672194 333.06510037 587.66210711 C328.94365457 587.67428666 324.82229025 587.67408263 320.70083058 587.67171836 C316.24735917 587.67130891 311.79391343 587.68236154 307.3404541 587.6918335 C298.62313792 587.70841681 289.90584879 587.71394184 281.18851814 587.71505825 C274.09935027 587.71601 267.01019129 587.72012664 259.92102623 587.7264595 C239.80255275 587.74406471 219.68410057 587.75329951 199.56561933 587.75179856 C198.48197383 587.75171864 197.39832833 587.75163873 196.28184509 587.7515564 C194.65438209 587.75143375 194.65438209 587.75143375 192.99404105 587.75130863 C175.41582147 587.75049596 157.83768763 587.76963079 140.25949285 587.79783313 C122.19132946 587.82659182 104.12320784 587.84037178 86.05502099 587.83864558 C75.91875758 587.8379827 65.78258406 587.84342999 55.64634132 587.86500168 C47.01538115 587.88325279 38.38455159 587.88752861 29.75358043 587.87398283 C25.35470737 587.86747296 20.95608464 587.86726392 16.55723572 587.88468933 C12.52092502 587.90051336 8.48506118 587.89746239 4.44876077 587.88012107 C2.99792552 587.87707154 1.54705613 587.88060522 0.09626118 587.89184122 C-18.13727178 588.02356689 -33.85803303 583.26007562 -47.38832092 570.53720093 C-59.15754883 558.01964061 -63.67452063 543.72433134 -63.79798889 526.89730835 C-63.81445969 525.66535233 -63.83093048 524.4333963 -63.84790039 523.16410828 C-63.89022658 519.80443569 -63.92381342 516.44492685 -63.95210791 513.08512282 C-63.97040472 510.98037527 -63.99140961 508.87567234 -64.01335526 506.77095985 C-64.0899995 499.4120975 -64.15646973 492.05322304 -64.21351624 484.69418335 C-64.26676117 477.8604673 -64.34243695 471.02724863 -64.42859828 464.19387549 C-64.50183785 458.30494399 -64.55913609 452.41599305 -64.60432637 446.52677995 C-64.63151163 443.01917094 -64.66492283 439.51190748 -64.7145195 436.00453758 C-64.76927126 432.08733892 -64.79084563 428.17032031 -64.80970764 424.2527771 C-64.83029739 423.10799896 -64.85088715 421.96322083 -64.87210083 420.78375244 C-64.87230508 412.01762318 -63.19760044 404.55385458 -58.29066467 397.19345093 C-56.41566467 395.38095093 -56.41566467 395.38095093 -54.41566467 395.38095093 C-54.07535217 394.54563843 -54.07535217 394.54563843 -53.72816467 393.69345093 C-52.04016431 390.71935505 -49.94889951 388.66086228 -47.41566467 386.38095093 C-46.75566467 386.38095093 -46.09566467 386.38095093 -45.41566467 386.38095093 C-45.41566467 385.72095093 -45.41566467 385.06095093 -45.41566467 384.38095093 C-42.36916438 380.90181154 -39.67875928 378.54468541 -35.04066467 377.94345093 C-32.41566467 378.38095093 -32.41566467 378.38095093 -31.41566467 379.38095093 C-31.31547407 381.35801869 -31.2865671 383.33871005 -31.28436279 385.3183136 C-31.28035461 386.60943054 -31.27634644 387.90054749 -31.2722168 389.23078918 C-31.27269197 390.67529299 -31.2732281 392.11979678 -31.27381897 393.56430054 C-31.27078901 395.07529808 -31.26726801 396.5862947 -31.26329041 398.09729004 C-31.25538513 401.36032654 -31.25025023 404.62335202 -31.24699974 407.88639641 C-31.24109707 413.0518161 -31.22456123 418.21716659 -31.20565796 423.3825531 C-31.19931983 425.15052314 -31.19299422 426.91849323 -31.18668079 428.68646336 C-31.18351498 429.57215696 -31.18034917 430.45785057 -31.17708743 431.37038338 C-31.13501945 443.39969086 -31.10206664 455.42896744 -31.08973694 467.45834351 C-31.08134149 475.56585676 -31.0587907 483.67320004 -31.02038127 491.78062826 C-31.00066013 496.07010326 -30.98820263 500.35932437 -30.99321556 504.64884758 C-30.9978817 508.69140505 -30.98395014 512.73348289 -30.95620346 516.77594376 C-30.94932291 518.25366834 -30.94913111 519.73144286 -30.95640373 521.20916557 C-31.0005537 531.19480394 -29.79081661 538.63069207 -24.72816467 547.25595093 C-17.20156484 554.17228591 -8.34008986 553.95423148 1.38021851 553.8888855 C2.87816776 553.89349946 4.37611249 553.8998557 5.87404782 553.90779448 C9.9733031 553.92444322 14.07218436 553.91626186 18.17144072 553.9038496 C22.5989434 553.89478303 27.02638268 553.90877685 31.45387268 553.91976929 C40.12089294 553.93754239 48.78777452 553.93371978 57.45480018 553.92211872 C64.50018294 553.91307934 71.54552688 553.91186259 78.59091377 553.91621399 C79.59426326 553.91682692 80.59761276 553.91743985 81.63136678 553.91807136 C83.66976667 553.91935028 85.70816655 553.92064714 87.74656642 553.92196172 C106.85461098 553.93336414 125.96257875 553.92025943 145.07061071 553.89876026 C161.45844345 553.88089233 177.84616284 553.88399154 194.23399353 553.9024353 C213.27285489 553.9238527 232.31164895 553.93226265 251.35052067 553.91998625 C253.38166081 553.91871208 255.41280096 553.91745459 257.44394112 553.91621399 C258.44325113 553.91559689 259.44256115 553.91497979 260.47215329 553.91434398 C267.50678603 553.91089349 274.541376 553.91671301 281.57600212 553.9261322 C290.1522473 553.93736333 298.72834608 553.93428881 307.30457454 553.91300923 C311.6785084 553.9025134 316.05219837 553.89835185 320.42613029 553.91160583 C324.43386406 553.92356625 328.44112896 553.91690752 332.44882048 553.89569563 C333.89487933 553.89124492 335.34097817 553.89346128 336.78701108 553.90319878 C345.65466805 553.9583102 354.14776123 553.69217818 361.37516397 547.96081591 C370.90400082 538.08194271 370.15540057 524.77947274 370.08554077 512.0479126 C370.0894371 510.08142416 370.0950802 508.11493855 370.10231167 506.14845955 C370.11703619 500.76343788 370.10690284 495.37870953 370.09257495 489.9936974 C370.08145219 484.17906221 370.09341203 478.36446771 370.10241699 472.54983521 C370.116342 461.16693215 370.10879892 449.78414012 370.09374141 438.40124236 C370.07772695 425.81552122 370.07969279 413.22982587 370.08327131 400.6440979 C370.09029101 375.60709367 370.07481806 350.57014862 370.04864786 325.53315944 C370.02552842 303.29702058 370.02014707 281.06094676 370.03038025 258.82479858 C370.03298234 253.1292922 370.03556737 247.43378581 370.03797817 241.73827934 C370.03842434 240.68644884 370.03842434 240.68644884 370.03887953 239.61336924 C370.04649626 221.02226372 370.04008071 202.43116351 370.02928215 183.84006035 C370.02775324 181.17509278 370.02623596 178.5101252 370.02472115 175.84515762 C370.02396333 174.53395241 370.02320552 173.2227472 370.02242474 171.87180849 C370.01768178 162.63105497 370.0195334 153.39031613 370.02378654 144.14956284 C370.02871235 132.89001351 370.02273242 121.63053145 370.00289225 110.37099753 C369.99301878 104.62611788 369.98791585 98.88134066 369.99578476 93.13645554 C370.00284082 87.87744361 369.99603849 82.6186384 369.97818113 77.35965373 C369.97413623 75.45741631 369.9751372 73.55516005 369.9817 71.65292965 C369.98986249 69.06554794 369.97952312 66.47886079 369.96465206 63.89152336 C369.97138971 63.15464238 369.97812736 62.41776139 369.98506919 61.65855068 C369.89443629 53.4933803 367.42389051 45.29403197 361.58433533 39.38095093 C354.28573934 34.50718582 347.25221912 34.81653505 338.70542908 34.87301636 C337.18629357 34.86840387 335.66716253 34.86204863 334.14804077 34.85410738 C329.98565916 34.83743848 325.82364529 34.84564921 321.66126251 34.85805225 C317.16765882 34.86711045 312.67411792 34.8531292 308.18052673 34.84213257 C299.3823606 34.82435098 290.58433099 34.82818573 281.78615952 34.83978313 C274.6353773 34.84881859 267.48463333 34.85004096 260.33384705 34.84568787 C258.8069382 34.84476847 258.8069382 34.84476847 257.2491827 34.8438305 C255.18122481 34.84255159 253.11326693 34.84125473 251.04530907 34.83994013 C231.65643999 34.82853539 212.26764657 34.84164639 192.8787899 34.8631416 C176.24414215 34.88101247 159.60960606 34.87790834 142.97496033 34.85946655 C123.65522422 34.83805799 104.33555442 34.82963401 85.01580811 34.84191561 C82.95547995 34.8431898 80.89515178 34.84444728 78.83482361 34.84568787 C77.82111663 34.84630497 76.80740965 34.84692207 75.76298428 34.84755787 C68.62122442 34.85101081 61.47950664 34.84518363 54.3377533 34.83576965 C45.63370113 34.82454847 36.92979325 34.82759227 28.2257576 34.84889263 C23.78524586 34.8594014 19.34497465 34.86352782 14.90446472 34.85029602 C10.83820103 34.83836269 6.77240044 34.84494996 2.70617867 34.86620623 C1.23657246 34.87066833 -0.233073 34.86841478 -1.70265388 34.85870308 C-11.29987065 34.80015329 -17.90343785 35.17637594 -25.16566467 41.94345093 C-31.7305867 50.85630417 -31.9825697 61.0299615 -31.86976624 71.6746521 C-31.86863557 73.1836443 -31.86927589 74.6926387 -31.87153625 76.20162964 C-31.87267579 80.26509516 -31.84929112 84.32808063 -31.82124043 88.39143538 C-31.79609873 92.65014774 -31.79387477 96.9088732 -31.78913879 101.16764832 C-31.77674631 109.21743656 -31.74397562 117.26700542 -31.70374084 125.31669742 C-31.65890655 134.48724273 -31.63700688 143.65779895 -31.6169591 152.82842672 C-31.57523932 171.67939212 -31.50496041 190.53015384 -31.41566467 209.38095093 C-33.27113342 210.43978882 -33.27113342 210.43978882 -35.41566467 211.38095093 C-40.32365325 209.38293531 -43.79635658 205.19036283 -47.41566467 201.44345093 C-52.10584674 196.59116701 -52.10584674 196.59116701 -57.21253967 192.19345093 C-59.47833397 190.32939321 -60.46385483 188.9614141 -61.66566467 186.31845093 C-62.13746155 185.31104858 -62.13746155 185.31104858 -62.61878967 184.28329468 C-64.08655092 180.77937444 -64.54386222 178.06176066 -64.55610657 174.29298401 C-64.56181671 173.24049469 -64.56752686 172.18800537 -64.57341003 171.10362244 C-64.57452789 169.9488591 -64.57564575 168.79409576 -64.57679749 167.6043396 C-64.58176239 166.38768616 -64.58672729 165.17103271 -64.59184265 163.91751099 C-64.6039574 160.57593004 -64.61141259 157.23441177 -64.61585331 153.89281631 C-64.61878817 151.79998936 -64.62289405 149.70716785 -64.62735748 147.61434364 C-64.64103984 141.05225214 -64.65069943 134.49017312 -64.65455937 127.92806834 C-64.65902374 120.38130154 -64.67649251 112.83471734 -64.70555997 105.28800601 C-64.72729324 99.43978839 -64.73727003 93.59162166 -64.73860049 87.74336416 C-64.73964146 84.25862402 -64.74539445 80.77405533 -64.7634201 77.28935814 C-64.78321357 73.38648201 -64.77856588 69.48382682 -64.77210999 65.5809021 C-64.78132477 64.4484053 -64.79053955 63.31590851 -64.80003357 62.14909363 C-64.72893538 48.31657373 -61.69460707 37.03667119 -54.41566467 25.38095093 C-53.94128967 24.61911499 -53.46691467 23.85727905 -52.97816467 23.07235718 C-45.0865052 11.57116027 -32.22084883 4.27167835 -18.92070496 1.02763438 C-12.64143453 -0.13089732 -6.36391471 -0.03168299 0 0 Z " fill="#2E4B2E" transform="translate(462.41566467285156,213.61904907226563)"/>
<path d="M0 0 C8.29357343 4.919199 14.97831083 11.53744677 21.73608398 18.31616211 C22.87493641 19.44765893 24.01440444 20.57853644 25.1544342 21.70884705 C28.22309817 24.75545607 31.28221711 27.81147476 34.3389194 30.87007976 C36.89866142 33.4299421 39.46274361 35.98543623 42.02669674 38.54107958 C48.07488248 44.57009323 54.11493094 50.60717504 60.15014648 56.64916992 C66.36610255 62.87177948 72.59670964 69.07944244 78.83447403 75.28018373 C84.20419174 80.61918964 89.56417805 85.96783184 94.91661507 91.32416159 C98.10735321 94.5169637 101.30171978 97.70590664 104.5057354 100.88538933 C107.51538522 103.87274715 110.51268625 106.87197182 113.50104332 109.88062477 C114.59680412 110.97978992 115.69681265 112.07474001 116.8014183 113.16501617 C123.12920634 119.41636784 128.22477698 124.4956898 129.3203125 133.6875 C128.94031746 138.18664122 128.23319158 141.23120062 125.140625 144.59765625 C124.19050537 145.63237061 124.19050537 145.63237061 123.22119141 146.68798828 C119.27156436 150.7991081 115.26131089 154.84646353 111.21405029 158.8611145 C109.58766731 160.47453514 107.96460304 162.09123271 106.34228516 163.70874023 C102.31536577 167.72241101 98.28297337 171.73056835 94.25073242 175.7388916 C90.8317138 179.13805724 87.41483601 182.53934867 84.00067139 185.94338989 C82.41478994 187.52287066 80.82588904 189.09926797 79.23681641 190.67553711 C74.57216059 195.3167494 70.04478976 200.00686228 65.76461792 205.006073 C62.09010231 209.15808563 58.1150452 213.0267994 54.19140625 216.94140625 C53.26585434 217.86791489 52.34030243 218.79442352 51.38670349 219.74900818 C49.43935145 221.69782361 47.49023087 223.64484737 45.53979492 225.59057617 C43.06103605 228.06363861 40.58679569 230.54116533 38.1138773 233.02006626 C35.72549855 235.41296201 33.3332792 237.80200318 30.94140625 240.19140625 C30.0640834 241.07075333 29.18676056 241.9501004 28.28285217 242.85609436 C23.86453736 247.25778349 19.38851208 251.52417452 14.65188599 255.58279419 C11.7514025 258.07121173 8.97324529 260.69765658 6.17578125 263.30078125 C2.25236312 266.36485107 -1.74439426 267.57803689 -6.75 267.4453125 C-12.54287856 266.29880529 -17.9353906 262.38342358 -22.125 258.3125 C-24.76944944 253.64063933 -25.06930013 249.25063237 -24 244 C-21.39445652 239.69084442 -18.44632137 236.19387196 -14.89599609 232.63720703 C-14.40119247 232.13889877 -13.90638885 231.64059052 -13.39659119 231.12718201 C-11.7771644 229.49902778 -10.15062288 227.87820993 -8.5234375 226.2578125 C-7.39022069 225.12324731 -6.25730082 223.98838547 -5.12466431 222.85324097 C-2.75919634 220.48483468 -0.39017398 218.12005861 1.98144531 215.7578125 C5.02599541 212.72470846 8.06140884 209.6826434 11.09426308 206.63784981 C13.42744083 204.29746303 15.76533859 201.96183831 18.10471725 199.62765121 C19.22657597 198.50712895 20.34694461 197.3851128 21.46580887 196.26160049 C23.02402512 194.6983291 24.5884656 193.14157213 26.15478516 191.58642578 C27.04428864 190.69851349 27.93379211 189.8106012 28.85025024 188.89578247 C31 187 31 187 33 187 C33 186.34 33 185.68 33 185 C34.75 183.2734375 34.75 183.2734375 37 181.375 C37.7425 180.74335937 38.485 180.11171875 39.25 179.4609375 C39.8275 178.97882813 40.405 178.49671875 41 178 C39.91901504 177.99853344 38.83803007 177.99706688 37.72428799 177.99555588 C11.42602555 177.9589669 -14.87210946 177.89952515 -41.17026615 177.81609726 C-53.88784561 177.7762817 -66.60536297 177.74390195 -79.32299805 177.72900391 C-90.40721216 177.71600049 -101.49128976 177.68906919 -112.575427 177.64538693 C-118.44484162 177.62274283 -124.3140877 177.6070911 -130.18354988 177.60811615 C-135.70837031 177.60886101 -141.23281772 177.59097999 -146.75754166 177.55883217 C-148.78479372 177.55031544 -150.81208753 177.54859523 -152.83934975 177.55419731 C-155.60928342 177.56083193 -158.3780284 177.5429294 -161.14784241 177.51898193 C-161.94844261 177.52674235 -162.74904281 177.53450277 -163.57390362 177.54249835 C-169.14483579 177.45734564 -172.38386284 176.14136206 -177 173 C-182.45134465 167.15411144 -181.56179986 158.55530884 -181.49609375 151.12109375 C-181.49624904 149.78166119 -181.49774297 148.44222819 -181.50050354 147.10279846 C-181.50188133 144.30799269 -181.48943363 141.513704 -181.46655273 138.71899414 C-181.43814148 135.15261847 -181.44092085 131.58709875 -181.45364285 128.02065945 C-181.46062608 125.2589447 -181.4527813 122.49742479 -181.44038582 119.73573494 C-181.43373202 117.78659799 -181.43799501 115.83743353 -181.44248962 113.88829041 C-181.34819326 105.00507855 -180.43056669 98.619701 -174 92 C-169.60310902 89.64805159 -165.2910698 89.72417722 -160.42631531 89.75949097 C-159.56449719 89.75778212 -158.70267907 89.75607327 -157.81474525 89.75431263 C-154.92808857 89.75101942 -152.04166454 89.76201872 -149.1550293 89.77294922 C-147.08535264 89.77351337 -145.01567557 89.7731967 -142.94599915 89.77206421 C-137.32660473 89.77148984 -131.70729551 89.78325778 -126.0879209 89.79721212 C-120.21558548 89.80970548 -114.34324815 89.81088888 -108.47090149 89.81326294 C-97.35043541 89.81948181 -86.23000861 89.83589815 -75.10955983 89.85596192 C-62.44947258 89.87830825 -49.78938346 89.88931117 -37.1292814 89.89935279 C-11.08616582 89.920264 14.95691489 89.95544791 41 90 C41 89.34 41 88.68 41 88 C40.01 87.67 39.02 87.34 38 87 C36.703125 85.64453125 36.703125 85.64453125 35.25 83.8125 C31.91359363 79.86107746 28.27972428 76.40739504 24.47265625 72.92578125 C15.6869253 64.80341955 7.20221473 56.38833424 -1.25708008 47.92822266 C-3.84893195 45.33859937 -6.44874888 42.7571409 -9.04882812 40.17578125 C-10.70621597 38.52132086 -12.36313515 36.8663908 -14.01953125 35.2109375 C-14.79335648 34.44429779 -15.5671817 33.67765808 -16.36445618 32.88778687 C-17.07667831 32.1724881 -17.78890045 31.45718933 -18.52270508 30.72021484 C-19.1480867 30.09625824 -19.77346832 29.47230164 -20.4178009 28.82943726 C-24.17266397 24.48783044 -24.62322842 20.4291948 -24.49609375 14.8203125 C-23.6171648 9.82356679 -20.894847 7.0701374 -17 4 C-11.4460619 0.28258776 -6.62748067 -2.36695738 0 0 Z " fill="#2C4A2C" transform="translate(325,374)"/>
<path d="M0 0 C1.06358231 -0.00571014 2.12716461 -0.01142029 3.22297668 -0.01730347 C4.37473389 -0.01842133 5.52649109 -0.01953918 6.71315002 -0.02069092 C8.55100822 -0.02813828 8.55100822 -0.02813828 10.42599487 -0.03573608 C13.77779544 -0.04781261 17.12953387 -0.05529535 20.48134875 -0.05974674 C22.58240761 -0.0626884 24.68346114 -0.06679538 26.78451729 -0.07125092 C33.3781028 -0.08491648 39.97167597 -0.09458569 46.56527466 -0.09845281 C54.13860119 -0.1029205 61.71174607 -0.1204121 69.28501743 -0.1494534 C75.16218562 -0.17119591 81.03930321 -0.18116386 86.91651112 -0.18249393 C90.41521115 -0.18353374 93.91374024 -0.18926216 97.41239738 -0.20731354 C125.37592038 -0.34345693 125.37592038 -0.34345693 137.52003479 3.14044189 C138.30144333 3.3577597 139.08285187 3.57507751 139.88793945 3.79898071 C162.98247802 10.83497138 182.07177269 26.14343541 194.15284729 46.95294189 C201.11650844 60.1104122 203.65068474 73.35804436 203.71290588 88.05767822 C203.72108337 89.13503738 203.72926086 90.21239655 203.73768616 91.32240295 C203.76241186 94.87242085 203.77902085 98.42239918 203.79347229 101.97247314 C203.79879597 103.18921911 203.80411964 104.40596508 203.80960464 105.65958214 C203.83627698 112.09663639 203.85567311 118.53367162 203.87013245 124.97076416 C203.88348149 130.28701951 203.91136153 135.60289195 203.9521637 140.91900635 C204.00153304 147.35267781 204.02625817 153.78600157 204.03335953 160.21985435 C204.04006043 162.66499317 204.05525197 165.11012457 204.07925034 167.5551548 C204.1109762 170.98218638 204.1109271 174.40788124 204.10353088 177.83502197 C204.12813889 179.33552094 204.12813889 179.33552094 204.15324402 180.86633301 C204.08117847 189.06195669 201.48458949 195.13246214 196.63331604 201.69122314 C190.40422136 207.78519646 182.4442458 213.24439523 173.43344879 213.2802496 C172.5982444 213.28594084 171.76304 213.29163208 170.90252638 213.29749578 C169.98494063 213.29867566 169.06735488 213.29985554 168.1219635 213.30107117 C167.14710888 213.30615899 166.17225427 213.31124681 165.1678586 213.3164888 C161.88616357 213.33224256 158.6044906 213.34074615 155.32276917 213.34918213 C152.97567097 213.35871836 150.6285742 213.36860942 148.28147888 213.37882996 C141.22589604 213.40753297 134.1703078 213.42730279 127.11468768 213.4442223 C125.12081859 213.44901872 123.12695001 213.45402276 121.13308144 213.45902753 C108.74447495 213.48981336 96.35586573 213.5166838 83.96723175 213.53344631 C81.09778841 213.53739566 78.22834515 213.54139867 75.35890198 213.54547119 C74.64573635 213.54647955 73.93257073 213.54748791 73.19779402 213.54852683 C61.65609309 213.56551797 50.11460717 213.60660935 38.5730111 213.65749418 C26.71564356 213.70933968 14.85838638 213.73839786 3.00090647 213.7456432 C-3.65340373 213.75029728 -10.30740156 213.76565809 -16.96160889 213.8053875 C-23.22601437 213.84229545 -29.48982051 213.85064927 -35.75431442 213.83738136 C-38.04922764 213.83743524 -40.3441677 213.84770378 -42.63898087 213.869133 C-65.99511629 214.0755122 -65.99511629 214.0755122 -75.61528778 205.16196346 C-83.97132818 196.65827338 -85.62713332 186.85351352 -85.64109802 175.41925049 C-85.64606293 174.44442215 -85.65102783 173.46959381 -85.65614319 172.46522522 C-85.67074396 169.23976937 -85.67756739 166.01436288 -85.68309021 162.78887939 C-85.68591759 161.68082569 -85.68874496 160.57277199 -85.69165802 159.4311409 C-85.70665124 153.55429089 -85.71587671 147.67746539 -85.72019958 141.80059814 C-85.72564932 135.77712304 -85.74960241 129.753878 -85.77817154 123.73047447 C-85.79696604 119.06136465 -85.80201262 114.39230803 -85.80353546 109.7231636 C-85.80653052 107.50598534 -85.81445014 105.28880729 -85.82772064 103.07166672 C-85.9836567 74.98809026 -82.40960186 49.4475325 -62.22996521 28.32794189 C-46.22527996 13.18897471 -22.5846685 0.07311084 0 0 Z M-41.47996521 54.14044189 C-50.68929898 65.75581782 -53.62148366 78.77423163 -53.64109802 93.31695557 C-53.64606293 94.20888107 -53.65102783 95.10080658 -53.65614319 96.01976013 C-53.6706656 98.94931831 -53.67754716 101.8788225 -53.68309021 104.80841064 C-53.68884613 106.85148621 -53.6946038 108.89456177 -53.70036316 110.93763733 C-53.71084225 115.21023814 -53.71670635 119.48282029 -53.72019958 123.75543213 C-53.72570363 129.23328601 -53.74978523 134.71089377 -53.77817154 140.18867016 C-53.79677166 144.40337353 -53.80200193 148.61801699 -53.80353546 152.83275795 C-53.80656418 154.85300365 -53.81460007 156.87324824 -53.82772064 158.8934536 C-53.84473973 161.71319975 -53.84291202 164.53233542 -53.83641052 167.35211182 C-53.84562531 168.18700134 -53.85484009 169.02189087 -53.86433411 169.88208008 C-53.842268 172.93093351 -53.74436749 175.54263294 -52.50070667 178.35452843 C-49.32169572 181.16411024 -45.81812446 180.68749211 -41.78060913 180.64164734 C-40.88107547 180.64718174 -39.98154181 180.65271613 -39.05474955 180.65841824 C-36.02816039 180.67207625 -33.00238853 180.65702764 -29.97581482 180.64215088 C-27.81115365 180.64593215 -25.64649489 180.6514306 -23.48184204 180.65852356 C-17.59354113 180.67251955 -11.70553105 180.66127962 -5.8172462 180.64481235 C0.33444418 180.63099509 6.4861171 180.63741805 12.63781738 180.64094543 C22.96880296 180.64364999 33.29967252 180.63015014 43.63063049 180.60699463 C55.5895993 180.58037639 67.54837415 180.57863914 79.50736243 180.59038299 C90.99395175 180.60114621 102.48047064 180.59498561 113.96705437 180.58082771 C118.86377558 180.57505597 123.76044544 180.57515989 128.65716743 180.57989311 C134.4183237 180.58465057 140.1792664 180.57461243 145.940382 180.55293846 C148.06004999 180.54735384 150.17973844 180.54692052 152.29940796 180.55189133 C155.1823998 180.55780641 158.0647303 180.54541214 160.94766235 180.52812195 C161.79579894 180.53413199 162.64393552 180.54014204 163.51777321 180.54633421 C166.07590843 180.55396934 166.07590843 180.55396934 169.52003479 180.14044189 C172.15596452 176.1865473 171.80781499 172.7830035 171.79469299 168.19366455 C171.79980392 167.2777655 171.80491486 166.36186646 171.81018066 165.41821289 C171.8241147 162.38024407 171.82311554 159.34250146 171.82081604 156.30450439 C171.8247039 154.1875907 171.82903875 152.07067778 171.83380127 149.95376587 C171.84127386 145.50668823 171.84096688 141.05968994 171.83570862 136.61260986 C171.82994487 130.94269528 171.8467647 125.27311065 171.87005329 119.6032505 C171.88487326 115.22431571 171.88565059 110.84545858 171.88254356 106.46650314 C171.8830537 104.37834399 171.88823307 102.29018013 171.89835548 100.20204544 C171.9805706 80.8508713 170.31110167 64.82108051 156.45362854 49.94512939 C138.02638584 32.74636954 115.97017306 32.67097409 92.24659729 32.70684814 C90.2645754 32.70343645 88.28255332 32.70001459 86.30053365 32.69549507 C80.08231415 32.68152867 73.86423225 32.68294446 67.64601135 32.69439697 C61.27818114 32.70586747 54.91077265 32.69180272 48.54299796 32.6650005 C43.03165349 32.64269059 37.52043991 32.63624025 32.00905359 32.64207691 C28.73675435 32.64541188 25.46478049 32.64150117 22.1925087 32.62582588 C-2.70571436 32.52333913 -23.73203183 34.92849665 -41.47996521 54.14044189 Z " fill="#2C4A2C" transform="translate(573.4799652099609,491.85955810546875)"/>
<path d="M0 0 C17.36364967 15.23909435 28.51630048 34.67514051 30.52050781 57.97802734 C32.00441062 82.13148124 23.56004624 102.68057784 8.1484375 121.01953125 C-6.41473195 136.62474249 -27.36853592 145.63933825 -48.62475586 146.37768555 C-72.72833216 146.53008606 -93.07235365 137.69980938 -110.7265625 121.33203125 C-126.49127444 104.94074093 -134.28329409 83.33099952 -133.9140625 60.76171875 C-132.38529125 36.73134569 -121.69067649 15.78892289 -103.6640625 -0.16796875 C-73.44953782 -24.57200791 -30.18258174 -24.56207165 0 0 Z M-89.5546875 31.140625 C-98.65076793 42.74654985 -101.68845349 55.30143908 -100.6640625 69.83203125 C-98.36114364 83.98573697 -91.78233688 95.71514986 -80.1171875 104.265625 C-68.32949936 111.79247682 -55.13324561 114.96711379 -41.29296875 112.14453125 C-32.18189989 109.56896408 -23.63908919 105.34205616 -16.6640625 98.83203125 C-16.6640625 98.17203125 -16.6640625 97.51203125 -16.6640625 96.83203125 C-16.0040625 96.83203125 -15.3440625 96.83203125 -14.6640625 96.83203125 C-9.58577436 90.45991173 -5.52594019 83.79316346 -3.6640625 75.83203125 C-3.4371875 74.88328125 -3.2103125 73.93453125 -2.9765625 72.95703125 C-1.43715907 57.56299693 -4.71900398 44.44959251 -13.6640625 31.83203125 C-22.61437536 21.54293209 -34.58499028 15.56588861 -48.09765625 14.58203125 C-64.35284062 14.04961989 -78.2752858 19.32125194 -89.5546875 31.140625 Z " fill="#2D4B2D" transform="translate(685.6640625,327.16796875)"/>
<path d="M0 0 C3.56764285 1.51376081 5.83706287 3.60513129 8.546875 6.3515625 C9.39121094 7.20234375 10.23554688 8.053125 11.10546875 8.9296875 C12.41451172 10.26386719 12.41451172 10.26386719 13.75 11.625 C14.63816406 12.5221875 15.52632813 13.419375 16.44140625 14.34375 C18.63216969 16.55807004 20.81812763 18.77692435 23 21 C22.34 21.66 21.68 22.32 21 23 C18.00292183 20.05226582 15.01239506 17.09808792 12.02783203 14.13769531 C11.01106601 13.13100272 9.99251438 12.12611034 8.97216797 11.12304688 C7.50798782 9.68305629 6.05029795 8.23676744 4.59375 6.7890625 C3.71396484 5.91975098 2.83417969 5.05043945 1.92773438 4.15478516 C0 2 0 2 0 0 Z " fill="#475A44" transform="translate(309,405)"/>
<path d="M0 0 C3.2586636 1.4264578 5.4024854 3.16704162 7.890625 5.6953125 C8.95410156 6.76845703 8.95410156 6.76845703 10.0390625 7.86328125 C11.13347656 8.98283203 11.13347656 8.98283203 12.25 10.125 C12.99507813 10.87910156 13.74015625 11.63320313 14.5078125 12.41015625 C16.3431342 14.26900772 18.1736191 16.13237005 20 18 C19.34 18.66 18.68 19.32 18 20 C14.99196428 17.04974274 11.9949821 14.08850331 9 11.125 C8.14148438 10.28324219 7.28296875 9.44148438 6.3984375 8.57421875 C5.58632813 7.76855469 4.77421875 6.96289062 3.9375 6.1328125 C2.80634766 5.01737061 2.80634766 5.01737061 1.65234375 3.87939453 C0 2 0 2 0 0 Z " fill="#495C46" transform="translate(332,428)"/>
<path d="M0 0 C0 0.99 0 1.98 0 3 C-1.60379341 3.05416188 -3.20811406 3.09286638 -4.8125 3.125 C-5.70582031 3.14820313 -6.59914063 3.17140625 -7.51953125 3.1953125 C-10 3 -10 3 -13 1 C-8.60563789 0.14256349 -4.47427924 -0.08948558 0 0 Z " fill="#3D553A" transform="translate(575,492)"/>
<path d="M0 0 C5.32697239 1.45281065 8.36402802 5.08111378 12 9 C8.0557333 9 7.17603973 7.68625863 4.3125 5.0625 C3.50425781 4.33160156 2.69601562 3.60070312 1.86328125 2.84765625 C1.24839844 2.23792969 0.63351562 1.62820312 0 1 C0 0.67 0 0.34 0 0 Z " fill="#253F23" transform="translate(840,225)"/>
<path d="M0 0 C0 0.99 0 1.98 0 3 C-2.64 3 -5.28 3 -8 3 C-8 2.34 -8 1.68 -8 1 C-5.29120665 -0.35439668 -2.99066732 -0.06501451 0 0 Z " fill="#385236" transform="translate(324,638)"/>
<path d="M0 0 C0.99 0.66 1.98 1.32 3 2 C0.60490662 4.89932357 -1.31245243 5.50168276 -5 6 C-3.35 4.02 -1.7 2.04 0 0 Z " fill="#4B5E47" transform="translate(351,566)"/>
<path d="M0 0 C0.66 0 1.32 0 2 0 C1 2 0 4 -1 6 C-3.5625 6.625 -3.5625 6.625 -6 7 C-4.71937515 5.2925002 -3.38232443 3.62626404 -2 2 C-1.34 2 -0.68 2 0 2 C0 1.34 0 0.68 0 0 Z " fill="#495E47" transform="translate(358,559)"/>
<path d="M0 0 C3.36720387 1.39332574 4.9859524 2.9789286 7 6 C4 6 4 6 1.8125 4.125 C0 2 0 2 0 0 Z " fill="#384F35" transform="translate(422,470)"/>
<path d="M0 0 C2.66666667 0.66666667 5.33333333 1.33333333 8 2 C8 2.66 8 3.32 8 4 C5.36 3.67 2.72 3.34 0 3 C0 2.01 0 1.02 0 0 Z " fill="#374F36" transform="translate(641,340)"/>
</svg>
